<svg width="103" height="117" viewBox="0 0 103 117" fill="none" xmlns="http://www.w3.org/2000/svg">
<path d="M55.2249 0V12.7451L85.3506 35.5665L55.2249 58.3995V71.1216L59.5614 67.8318L93.7706 41.9276L102.168 35.5665L93.7706 29.194L59.5614 3.28979L55.2249 0Z" fill="#F37421"/>
<path d="M42.6177 3.28908L8.42002 29.1933L0 35.5658L8.42002 41.9268L42.6177 67.831L46.8277 71.0288V58.3068L16.8285 35.5658L46.8277 12.8364V0.0913086L42.6177 3.28908Z" fill="#F37421"/>
<path d="M102.202 58.0891L59.734 90.4349L55.2249 93.8627V80.9681L93.7131 51.6476L102.202 58.0891Z" fill="#181818"/>
<path d="M0.0805664 57.9966L42.6638 90.4344L46.8278 93.6091V80.703L8.5811 51.5665L0.0805664 57.9966Z" fill="#181818"/>
<path d="M55.2249 103.445V116.351L59.734 112.923L102.202 80.5659L93.7131 74.1244L55.2249 103.445Z" fill="#181818"/>
<path d="M0.0805664 80.4736L42.6638 112.923L46.8278 116.086V103.192L8.5811 74.0551L0.0805664 80.4736Z" fill="#181818"/>
</svg>
