<svg width="826" height="154" viewBox="0 0 826 154" fill="none" xmlns="http://www.w3.org/2000/svg">
<path d="M66.3257 152.488H0V123.738H66.3257C68.3356 123.738 69.996 123.039 71.3941 121.641C72.7923 120.243 73.4914 118.583 73.4914 116.573C73.4914 114.563 72.7923 113.165 71.3941 112.553C69.996 111.941 68.2482 111.592 66.3257 111.592H36.0903C31.0219 111.592 26.3031 110.63 21.9338 108.708C17.5645 106.786 13.7196 104.251 10.4863 100.931C7.25302 97.61 4.63144 93.8524 2.79634 89.4831C0.873854 85.1139 0 80.395 0 75.4141C0 70.4331 0.96124 65.7142 2.79634 61.3449C4.63144 56.9757 7.25302 53.1307 10.4863 49.8974C13.7196 46.6641 17.5645 44.13 21.9338 42.2075C26.3031 40.3724 31.0219 39.4111 36.0903 39.4111H94.9009V68.7727H36.0903C34.0804 68.7727 32.4201 69.4718 31.0219 70.87C29.6238 72.2682 28.9247 73.3168 28.9247 75.3267C28.9247 77.3365 29.6238 79.0843 31.0219 80.5698C32.4201 82.0554 34.1678 82.7545 36.0903 82.7545H66.3257C71.3067 82.7545 75.9382 83.5409 80.3948 85.2012C84.7641 86.8616 88.6091 89.1336 91.8424 92.1047C95.0757 95.0758 97.6972 98.6586 99.6197 102.766C101.542 106.96 102.503 111.504 102.503 116.398C102.503 121.292 101.542 126.098 99.6197 130.38C97.6972 134.749 95.0757 138.507 91.8424 141.827C88.6091 145.148 84.7641 147.682 80.3948 149.517C76.0256 151.352 71.3067 152.313 66.3257 152.313" fill="#181818"/>
<path d="M171.713 152.488C164.722 152.488 158.256 151.177 152.139 148.555C146.022 145.934 140.691 142.351 136.06 137.807C131.429 133.263 127.846 127.932 125.224 121.815C122.603 115.786 121.292 109.232 121.292 102.328V69.0344H107.31V39.4106H121.292V0.0870361H149.954V39.4106H193.56V69.0344H149.954V102.328C149.954 105.299 150.479 108.096 151.615 110.717C152.751 113.339 154.324 115.611 156.246 117.533C158.169 119.456 160.528 121.029 163.15 122.165C165.858 123.301 168.655 123.913 171.713 123.913H193.472V152.4H171.713V152.488Z" fill="#181818"/>
<path d="M431.336 65.452L411.412 85.376C410.451 82.5796 409.053 80.1328 407.305 77.8608C405.557 75.6761 403.635 73.7537 401.45 72.2681C399.265 70.7825 396.906 69.5591 394.459 68.7727C391.925 67.9862 389.304 67.5493 386.682 67.5493C382.924 67.5493 379.429 68.3357 376.196 69.8213C372.875 71.3069 370.079 73.4915 367.632 76.2005C365.185 78.9094 363.263 82.2301 361.864 85.9877C360.466 89.7453 359.767 93.9398 359.767 98.4838C359.767 102.154 360.466 105.649 361.864 108.883C363.263 112.116 365.185 115 367.632 117.447C370.079 119.893 372.875 121.816 376.196 123.214C379.516 124.612 383.012 125.311 386.682 125.311C389.304 125.311 391.925 124.962 394.372 124.263C396.819 123.564 399.178 122.515 401.275 121.117C403.46 119.719 405.383 118.146 407.043 116.136C408.703 114.213 410.101 112.029 411.15 109.669L431.074 129.593C428.54 133.176 425.656 136.409 422.335 139.206C419.015 142.089 415.519 144.449 411.674 146.459C407.829 148.468 403.81 149.954 399.615 151.003C395.421 152.051 391.051 152.576 386.595 152.576C379.079 152.576 372.001 151.177 365.36 148.381C358.719 145.585 352.951 141.74 347.97 136.846C342.989 131.953 339.144 126.272 336.26 119.719C333.377 113.165 331.979 106.174 331.979 98.6586C331.979 90.5317 333.377 82.9292 336.26 75.8509C339.144 68.7727 342.989 62.5683 347.97 57.3251C352.951 52.082 358.719 47.8875 365.36 44.9164C372.001 41.8579 379.079 40.3723 386.595 40.3723C391.051 40.3723 395.421 40.8966 399.702 42.0326C403.984 43.1687 408.091 44.829 411.936 46.9262C415.869 49.1109 419.452 51.7325 422.685 54.791C425.918 57.8495 428.802 61.4323 431.249 65.5394" fill="#181818"/>
<path d="M472.146 153.974H443.134V1.57288H472.146V95.8621L515.751 41.1586H548.87L510.77 88.5217L548.259 153.974H515.14L492.245 113.077L472.146 139.555V153.974Z" fill="#181818"/>
<path d="M715.69 0.0873856C705.553 13.8069 695.853 27.0022 685.891 40.547C684.755 40.547 683.619 40.4596 682.571 40.4596C666.142 40.4596 651.287 47.2757 640.8 58.2863C654.695 39.6731 668.502 20.8852 682.221 2.18464C683.357 0.699086 684.493 0 686.416 0C695.067 0.0873857 703.805 0 712.457 0H715.69V0.0873856Z" fill="#181818"/>
<path d="M637.654 131.516C630.576 122.777 625.857 111.679 625.07 99.7946C623.323 113.514 612.836 124.7 599.903 127.059C599.641 127.059 599.379 127.146 599.117 127.146C598.243 127.234 597.282 127.321 596.408 127.408C580.241 128.282 566.609 118.32 563.201 102.94C562.764 100.843 562.502 98.6586 562.153 96.4739C562.153 96.2991 562.153 96.2118 562.153 96.037H537.422C537.685 98.8333 537.685 101.455 538.121 103.989C541.617 126.098 556.56 143.225 576.571 149.604C577.358 149.867 578.231 150.041 579.018 150.304C580.503 150.653 581.902 151.003 583.475 151.265C583.824 151.352 584.174 151.44 584.611 151.44C585.222 151.527 585.921 151.614 586.62 151.702C587.232 151.789 587.844 151.876 588.456 151.876C589.329 151.876 590.116 151.964 590.902 152.051C592.126 152.139 593.349 152.139 594.573 152.139C611.7 152.139 627.604 144.099 638.003 131.253" fill="#181818"/>
<path d="M620.002 45.3532C624.983 49.1108 629.877 52.781 634.77 56.4512C628.566 64.2285 624.459 72.3554 622.274 81.0939C619.653 78.0354 617.206 74.8022 614.322 72.0932C608.729 67.0248 602.001 64.4907 594.311 64.4907H574.649C584.436 51.208 593.786 38.4497 603.486 25.2545H553.152L556.211 21.3221L573.426 0C599.467 0 625.508 0 651.636 0C651.985 0 652.248 -8.13843e-08 653.121 0.0873856C641.849 15.3799 630.838 30.4976 619.915 45.2658" fill="#181818"/>
<path d="M825.883 95.8625C825.883 124.875 803.949 148.818 775.811 151.964C773.714 152.226 771.616 152.314 769.432 152.314C768.558 152.314 767.684 152.314 766.81 152.314C765.936 152.314 765.062 152.226 764.189 152.139C763.577 152.139 762.965 152.051 762.353 151.964C761.917 151.964 761.567 151.877 761.13 151.789C760.431 151.702 759.732 151.615 759.033 151.44C758.159 151.265 757.373 151.09 756.499 150.915C747.411 148.731 739.021 144.099 731.419 137.196C730.895 136.759 730.37 136.409 729.584 135.973C735.613 128.632 739.808 120.767 742.08 112.116C747.498 121.554 757.635 127.846 769.344 127.846C774.5 127.846 779.394 126.622 783.763 124.35C784.375 124.001 785.074 123.651 785.685 123.302C793.375 118.845 799.23 111.155 800.891 101.193C803.774 83.8906 792.065 67.5495 774.85 64.8405C764.363 63.1802 754.227 66.9378 747.236 73.9286C746.886 74.2782 746.624 74.5403 746.275 74.8899C745.925 75.2394 745.663 75.589 745.313 75.9385C740.682 81.3564 737.885 88.2599 737.711 95.8625V96.2994C737.623 109.582 732.992 121.729 725.215 131.341C715.427 143.488 700.747 151.44 684.231 152.314C683.269 152.314 682.221 152.314 681.172 152.314C680.386 152.314 679.687 152.314 678.988 152.314C677.327 152.314 675.667 152.051 674.007 151.877C674.007 151.877 673.919 151.877 673.832 151.877C673.22 151.789 672.608 151.702 671.997 151.615C671.385 151.527 670.773 151.44 670.249 151.265C669.987 151.265 669.725 151.178 669.375 151.09C669.288 151.09 669.113 151.09 668.938 151.003C660.2 148.993 651.985 144.711 644.47 138.332C643.684 137.72 642.985 137.021 642.286 136.322C642.023 136.147 641.849 135.798 641.674 135.448C647.267 128.632 651.374 120.942 653.908 111.854C659.326 121.292 669.462 127.671 681.172 127.671C684.056 127.671 686.94 127.234 689.561 126.535C689.998 126.447 690.435 126.273 690.872 126.185C691.222 126.098 691.571 125.923 691.921 125.836C702.494 122.166 710.709 112.903 712.806 100.669C713.068 99.0957 713.243 97.4354 713.243 95.7751C713.68 81.7934 717.612 69.9963 725.215 60.646C730.632 54.0047 737.798 48.4994 746.886 44.3923C753.44 41.4211 760.169 39.8482 766.898 39.4987C767.597 39.4987 768.383 39.4987 769.082 39.4987C770.131 39.4987 771.179 39.4987 772.228 39.4987C801.939 41.159 825.621 65.8018 825.621 95.9498" fill="#F37421"/>
<path d="M721.631 57.4125C715.864 64.4034 711.756 72.2681 709.397 80.7445C706.688 77.8608 704.329 74.5401 701.183 72.1807C691.745 64.9277 681.171 63.0926 670.073 67.5493C663.17 70.2582 657.927 74.5401 654.519 80.3076C651.46 85.1138 649.713 90.7065 649.625 96.7361V97.173C649.625 98.6586 649.538 100.144 649.45 101.63C649.45 102.241 649.363 102.853 649.276 103.465C649.276 103.64 649.276 103.902 649.276 104.077C647.877 114.65 643.596 124.263 637.216 132.215C630.138 123.476 625.681 112.64 624.808 100.756C625.594 94.2893 626.118 87.7354 627.517 81.3562C629.177 74.0158 633.109 67.724 637.391 61.7818C638.352 60.471 639.226 59.2476 640.187 57.9368C640.187 57.9368 640.275 57.7621 640.362 57.7621C650.674 47.101 665.092 40.3723 681.084 40.3723C682.133 40.3723 683.269 40.3723 684.317 40.4597C684.317 40.4597 684.317 40.5471 684.23 40.5471C688.599 40.8092 692.794 41.4209 696.726 42.557C697.076 42.557 697.513 42.7317 697.862 42.9065C698.736 43.1687 699.61 43.4308 700.484 43.7804C708.523 46.7515 715.689 51.4703 721.544 57.4999" fill="#F37421"/>
<path d="M318.434 152.75H291.17C291.082 150.129 290.908 147.594 290.733 144.449C289.073 145.322 287.762 146.022 286.451 146.721C255.167 163.149 217.678 146.109 209.988 111.679C205.619 92.1045 208.59 73.6661 221.96 57.9367C237.253 39.9353 267.051 31.4588 292.044 49.0234C293.704 50.2468 295.452 51.3828 297.112 52.6062C306.462 44.6541 309.958 43.1685 318.521 43.0811V152.75H318.434ZM290.558 95.5126C290.733 88.3469 287.674 81.6182 282.519 75.9382C268.799 60.9952 244.768 65.5393 238.214 84.502C236.554 89.3082 236.204 94.8135 236.466 99.8819C236.991 111.592 244.156 120.854 254.468 124C272.557 129.593 290.908 115.437 290.558 95.4252" fill="#181818"/>
</svg>
